<svg xmlns="http://www.w3.org/2000/svg" xmlns:xlink="http://www.w3.org/1999/xlink" id="svg" version="1.1" width="400" fill="#fff" height="417.7474402730375" viewBox="0, 0, 400,417.7474402730375"><g id="svgg"><path id="path1" d="M105.395 116.068 C 105.281 116.365,105.236 122.007,105.294 128.604 L 105.400 140.600 108.600 140.811 C 110.360 140.928,112.008 141.153,112.263 141.312 C 112.517 141.471,113.777 141.767,115.063 141.969 C 120.967 142.900,127.918 146.598,133.128 151.582 C 136.018 154.345,136.473 154.448,138.400 152.765 C 139.170 152.093,140.874 150.611,142.187 149.472 C 143.499 148.332,145.659 146.394,146.987 145.163 C 148.314 143.933,150.013 142.403,150.763 141.763 C 153.994 139.005,156.400 136.489,156.400 135.869 C 156.400 134.194,145.277 125.956,139.000 122.981 C 134.168 120.692,126.577 118.204,120.800 117.018 C 115.063 115.840,105.704 115.263,105.395 116.068 M89.400 117.421 C 86.323 117.981,82.966 118.842,80.800 119.624 C 76.130 121.312,74.836 121.801,73.400 122.424 C 72.520 122.806,71.620 123.181,71.400 123.259 C 68.776 124.185,60.462 129.555,56.630 132.800 C 52.515 136.285,43.600 146.523,43.600 147.764 C 43.600 147.872,43.016 148.824,42.303 149.880 C 41.589 150.936,39.879 154.041,38.503 156.781 C 37.126 159.520,35.976 161.410,35.947 160.981 C 35.917 160.551,35.758 161.010,35.594 162.000 C 35.429 162.990,34.813 165.060,34.225 166.600 C 33.212 169.254,32.652 171.074,31.580 175.200 C 31.323 176.190,30.869 177.900,30.571 179.000 C 30.034 180.984,28.988 186.663,27.955 193.200 C 27.218 197.866,27.197 225.206,27.926 230.000 C 29.770 242.116,31.093 247.762,34.114 256.400 C 34.768 258.270,35.390 260.497,35.498 261.348 C 35.629 262.386,35.803 262.719,36.025 262.359 C 36.282 261.944,36.418 262.001,36.628 262.611 C 37.182 264.226,40.160 270.205,40.474 270.333 C 40.653 270.407,40.800 270.669,40.800 270.915 C 40.800 271.886,45.534 278.834,49.093 283.085 C 56.296 291.690,63.467 296.990,75.000 302.235 C 79.385 304.229,88.736 306.778,91.710 306.791 C 94.784 306.803,94.801 306.744,94.796 296.074 C 94.790 284.267,94.322 282.901,90.249 282.787 C 86.861 282.693,76.414 274.017,72.273 267.857 C 70.293 264.912,65.600 256.150,65.600 255.398 C 65.600 255.246,65.347 254.554,65.038 253.860 C 64.729 253.167,64.081 251.340,63.597 249.800 C 63.113 248.260,62.537 246.460,62.317 245.800 C 62.097 245.140,61.752 243.610,61.550 242.400 C 61.349 241.190,60.998 239.736,60.772 239.168 C 60.545 238.601,60.201 236.711,60.007 234.968 C 59.813 233.226,59.474 230.720,59.254 229.400 C 58.378 224.157,57.951 211.746,58.383 204.083 C 58.764 197.327,59.019 195.099,60.343 187.000 C 61.013 182.903,62.867 175.743,63.631 174.305 C 63.834 173.923,64.000 173.411,64.000 173.166 C 64.000 172.445,67.658 164.686,69.807 160.849 C 72.230 156.522,81.276 147.200,83.051 147.200 C 83.208 147.200,83.621 146.946,83.969 146.635 C 84.816 145.876,90.067 143.204,90.716 143.202 C 92.458 143.195,94.353 141.585,94.606 139.896 C 95.008 137.218,94.659 118.094,94.200 117.664 C 93.459 116.971,92.214 116.908,89.400 117.421 M357.515 118.055 C 357.370 118.491,355.348 118.624,347.376 118.720 C 336.720 118.849,336.359 118.919,335.779 120.953 C 335.580 121.653,334.279 124.556,332.788 127.628 C 332.620 127.974,332.006 129.504,331.423 131.028 C 330.841 132.553,330.113 134.340,329.806 135.000 C 328.224 138.398,326.777 141.667,325.820 144.000 C 325.234 145.430,324.225 147.733,323.577 149.118 C 322.930 150.503,322.400 151.743,322.400 151.874 C 322.400 152.005,322.057 152.852,321.637 153.756 C 321.218 154.660,320.475 156.390,319.986 157.600 C 319.497 158.810,318.311 161.476,317.349 163.524 C 316.387 165.572,315.600 167.336,315.600 167.444 C 315.600 167.731,312.524 174.984,311.165 177.901 C 310.524 179.277,310.000 180.579,310.000 180.795 C 310.000 181.011,309.119 183.035,308.042 185.294 C 306.965 187.552,305.596 190.660,305.001 192.200 C 304.406 193.740,303.757 195.171,303.559 195.380 C 303.362 195.589,303.200 195.987,303.200 196.265 C 303.200 196.542,302.595 198.081,301.855 199.685 C 301.115 201.288,300.102 203.590,299.604 204.800 C 298.276 208.024,296.482 211.989,295.585 213.679 C 295.153 214.493,294.800 215.423,294.800 215.747 C 294.800 216.070,294.552 216.845,294.249 217.468 C 293.946 218.090,293.421 219.230,293.082 220.000 C 292.743 220.770,291.848 222.750,291.093 224.400 C 290.338 226.050,289.062 228.930,288.257 230.800 L 286.793 234.200 286.803 257.600 C 286.813 283.377,286.655 281.926,289.494 282.262 C 293.596 282.748,295.405 281.629,296.252 278.083 C 296.394 277.487,296.651 276.819,296.824 276.597 C 296.996 276.375,297.394 275.475,297.709 274.597 C 298.465 272.484,301.470 265.019,302.378 263.000 C 302.773 262.120,303.504 260.320,304.002 259.000 C 304.500 257.680,305.056 256.240,305.239 255.800 C 307.191 251.092,309.750 244.759,310.087 243.800 C 310.319 243.140,310.665 242.429,310.855 242.220 C 311.045 242.011,311.200 241.515,311.200 241.119 C 311.200 240.722,311.560 239.725,312.000 238.904 C 312.440 238.084,312.806 237.139,312.813 236.806 C 312.820 236.473,313.090 235.851,313.413 235.424 C 313.736 234.996,314.000 234.402,314.000 234.102 C 314.000 233.628,314.462 232.450,316.000 229.000 C 316.197 228.560,316.744 227.210,317.216 226.000 C 317.688 224.790,318.418 223.060,318.837 222.156 C 319.257 221.252,319.606 220.262,319.613 219.956 C 319.620 219.650,319.890 219.051,320.213 218.624 C 320.536 218.196,320.800 217.467,320.800 217.004 C 320.800 216.540,320.964 215.989,321.165 215.780 C 321.366 215.571,322.435 213.060,323.542 210.200 C 324.648 207.340,326.570 202.570,327.812 199.600 C 329.054 196.630,330.216 193.750,330.393 193.200 C 330.570 192.650,331.472 190.400,332.396 188.200 C 333.321 186.000,334.264 183.519,334.491 182.686 C 334.864 181.321,336.165 180.032,336.666 180.532 C 336.774 180.641,336.842 208.616,336.816 242.699 C 336.786 283.664,336.908 305.031,337.175 305.735 L 337.580 306.800 346.910 306.800 C 353.633 306.800,356.374 306.934,356.720 307.280 C 357.093 307.653,357.307 307.653,357.680 307.280 C 357.994 306.966,359.650 306.800,362.466 306.800 C 366.314 306.800,366.816 306.718,367.186 306.026 C 367.842 304.800,367.757 120.356,367.100 119.505 C 366.709 118.998,365.699 118.828,362.485 118.728 C 359.554 118.637,358.273 118.443,358.033 118.055 C 357.749 117.594,357.669 117.594,357.515 118.055 M195.149 119.461 C 194.239 120.558,194.135 304.423,195.043 305.810 L 195.692 306.800 209.846 306.800 C 223.467 306.800,224.030 306.770,224.800 306.000 C 225.593 305.207,225.600 304.667,225.600 243.000 C 225.600 188.409,225.672 180.800,226.191 180.800 C 226.934 180.800,227.648 181.947,228.803 185.000 C 229.303 186.320,229.943 187.940,230.226 188.600 C 230.508 189.260,231.123 190.790,231.591 192.000 C 232.060 193.210,232.611 194.560,232.818 195.000 C 233.024 195.440,233.627 196.970,234.159 198.400 C 234.690 199.830,235.682 202.199,236.363 203.665 C 237.043 205.130,237.600 206.581,237.600 206.888 C 237.600 207.196,237.864 207.796,238.187 208.224 C 238.510 208.651,238.781 209.270,238.790 209.600 C 238.798 209.930,239.036 210.650,239.319 211.200 C 239.602 211.750,240.252 213.370,240.764 214.800 C 241.276 216.230,242.054 218.202,242.495 219.183 C 243.701 221.869,246.424 228.439,246.895 229.800 C 247.124 230.460,247.556 231.478,247.855 232.062 C 248.155 232.646,248.400 233.346,248.400 233.618 C 248.400 234.081,249.349 236.334,250.638 238.932 C 250.947 239.555,251.200 240.240,251.200 240.454 C 251.200 240.669,251.528 241.599,251.929 242.522 C 252.330 243.445,252.940 244.920,253.283 245.800 C 254.646 249.293,256.907 254.657,257.438 255.662 C 257.747 256.246,258.000 256.931,258.000 257.184 C 258.000 257.437,258.338 258.399,258.751 259.322 C 259.164 260.245,260.163 262.710,260.970 264.800 C 261.778 266.890,262.970 269.733,263.620 271.118 C 264.269 272.503,264.800 273.785,264.800 273.967 C 264.800 274.314,265.860 276.892,267.317 280.089 C 268.277 282.193,269.795 282.747,273.311 282.276 C 276.173 281.892,276.037 283.210,275.912 257.207 L 275.800 233.800 274.260 230.400 C 273.413 228.530,272.272 226.010,271.724 224.800 C 271.176 223.590,270.399 221.880,269.998 221.000 C 269.596 220.120,268.875 218.410,268.394 217.200 C 267.914 215.990,267.100 214.089,266.586 212.976 C 265.693 211.045,265.064 209.606,260.914 200.000 C 259.916 197.690,258.749 194.990,258.321 194.000 C 257.893 193.010,257.376 191.887,257.171 191.505 C 256.967 191.123,256.800 190.612,256.800 190.370 C 256.800 190.127,255.900 188.053,254.800 185.761 C 253.700 183.470,252.800 181.496,252.800 181.375 C 252.800 181.177,252.317 180.032,250.576 176.100 C 250.259 175.385,249.747 174.215,249.439 173.500 C 249.130 172.785,248.489 171.300,248.014 170.200 C 247.539 169.100,246.914 167.660,246.625 167.000 C 246.336 166.340,245.512 164.450,244.793 162.800 C 244.074 161.150,243.079 158.900,242.582 157.800 C 242.085 156.700,241.290 154.810,240.816 153.600 C 240.341 152.390,239.703 150.860,239.397 150.200 C 237.990 147.158,236.392 143.557,235.399 141.189 C 233.909 137.636,232.111 133.628,231.395 132.268 C 231.068 131.645,230.800 130.952,230.800 130.728 C 230.800 130.504,230.506 129.664,230.147 128.860 C 229.788 128.057,229.158 126.635,228.747 125.700 C 226.887 121.467,226.236 120.152,225.676 119.500 C 224.782 118.457,196.013 118.420,195.149 119.461 M105.467 209.867 C 104.938 210.396,105.161 229.927,105.700 230.276 C 105.975 230.454,112.935 230.638,121.167 230.685 C 132.856 230.752,136.206 230.884,136.461 231.285 C 137.296 232.601,136.847 276.410,135.986 277.619 C 135.085 278.884,131.869 281.200,131.012 281.200 C 130.711 281.200,129.955 281.453,129.332 281.762 C 128.018 282.414,125.593 283.047,122.200 283.623 C 120.880 283.847,118.720 284.228,117.400 284.470 C 116.080 284.713,112.840 285.021,110.200 285.155 L 105.400 285.400 105.293 296.151 C 105.167 308.936,104.869 308.121,109.571 307.869 C 125.988 306.987,142.623 302.259,151.222 296.030 C 152.156 295.354,153.081 294.800,153.277 294.800 C 153.473 294.800,153.851 294.619,154.117 294.397 C 154.383 294.175,156.039 292.870,157.798 291.497 C 160.822 289.136,162.637 287.428,165.400 284.341 L 166.600 283.000 166.707 246.800 C 166.806 213.056,166.767 210.566,166.130 210.100 C 165.391 209.559,106.003 209.331,105.467 209.867 " stroke="none" fill="#e90404" fill-rule="evenodd"/><path id="path2" d="M125.600 48.013 C 120.425 48.431,114.826 49.207,112.600 49.814 C 111.500 50.114,109.160 50.745,107.400 51.218 C 99.879 53.235,88.934 57.891,83.984 61.179 C 82.642 62.071,81.453 62.800,81.342 62.800 C 81.084 62.800,75.323 66.779,72.200 69.114 C 69.145 71.398,58.357 82.366,56.574 85.000 C 55.830 86.100,54.447 88.080,53.500 89.400 C 51.381 92.355,46.400 100.165,46.400 100.533 C 46.400 100.681,45.537 102.646,44.482 104.901 C 41.451 111.376,37.559 124.306,36.966 129.868 C 36.829 131.150,36.466 133.088,36.159 134.173 C 35.584 136.203,35.322 158.721,35.850 160.692 C 36.042 161.407,36.575 160.616,38.547 156.692 C 39.899 154.001,41.589 150.936,42.303 149.880 C 43.016 148.824,43.600 147.872,43.600 147.764 C 43.600 146.523,52.515 136.285,56.630 132.800 C 60.462 129.555,68.776 124.185,71.400 123.259 C 71.620 123.181,72.520 122.806,73.400 122.424 C 74.836 121.801,76.130 121.312,80.800 119.624 C 85.004 118.105,92.170 116.742,93.443 117.220 C 94.633 117.667,94.791 119.139,94.796 129.850 C 94.801 141.709,94.349 143.188,90.716 143.202 C 90.067 143.204,84.816 145.876,83.969 146.635 C 83.621 146.946,83.208 147.200,83.051 147.200 C 81.276 147.200,72.230 156.522,69.807 160.849 C 67.658 164.686,64.000 172.445,64.000 173.166 C 64.000 173.411,63.834 173.923,63.631 174.305 C 62.867 175.743,61.013 182.903,60.343 187.000 C 59.019 195.099,58.764 197.327,58.383 204.083 C 57.951 211.746,58.378 224.157,59.254 229.400 C 59.474 230.720,59.813 233.226,60.007 234.968 C 60.201 236.711,60.545 238.601,60.772 239.168 C 60.998 239.736,61.349 241.190,61.550 242.400 C 61.752 243.610,62.097 245.140,62.317 245.800 C 62.537 246.460,63.113 248.260,63.597 249.800 C 64.081 251.340,64.729 253.167,65.038 253.860 C 65.347 254.554,65.600 255.246,65.600 255.398 C 65.600 256.150,70.293 264.912,72.273 267.857 C 76.414 274.017,86.861 282.693,90.249 282.787 C 94.322 282.901,94.790 284.267,94.796 296.074 C 94.801 306.744,94.784 306.803,91.710 306.791 C 88.736 306.778,79.385 304.229,75.000 302.235 C 63.467 296.990,56.296 291.690,49.093 283.085 C 45.534 278.834,40.800 271.886,40.800 270.915 C 40.800 270.669,40.653 270.407,40.474 270.333 C 40.160 270.205,37.182 264.226,36.628 262.611 C 35.510 259.357,35.072 283.846,36.162 288.600 C 36.465 289.920,36.835 292.080,36.983 293.400 C 37.132 294.720,37.500 296.700,37.800 297.800 C 38.101 298.900,38.639 300.970,38.995 302.400 C 44.180 323.230,56.339 341.334,74.800 355.714 C 80.265 359.970,94.281 367.882,97.626 368.598 C 98.382 368.760,99.180 369.025,99.400 369.188 C 99.620 369.350,100.520 369.679,101.400 369.919 C 102.280 370.159,104.260 370.736,105.800 371.200 C 109.236 372.237,113.023 373.126,116.200 373.643 C 117.520 373.857,119.770 374.297,121.200 374.620 C 125.083 375.496,272.567 375.485,276.200 374.608 C 277.520 374.289,279.115 374.022,279.745 374.014 C 281.945 373.987,289.047 372.165,297.186 369.542 C 303.619 367.468,314.230 361.931,319.996 357.639 C 322.328 355.904,328.932 350.568,330.062 349.506 C 330.646 348.957,331.679 348.113,332.357 347.630 C 333.408 346.883,334.789 345.362,338.746 340.600 C 340.337 338.685,344.717 332.864,345.668 331.400 C 346.920 329.474,350.800 322.838,350.800 322.623 C 350.800 322.539,351.789 320.430,352.998 317.935 C 354.207 315.441,355.197 313.173,355.198 312.895 C 355.199 312.617,355.379 312.077,355.597 311.695 C 358.278 307.005,357.914 306.800,346.910 306.800 L 337.580 306.800 337.175 305.735 C 336.908 305.031,336.786 283.664,336.816 242.699 C 336.842 208.616,336.774 180.641,336.666 180.532 C 336.165 180.032,334.864 181.321,334.491 182.686 C 334.264 183.519,333.321 186.000,332.396 188.200 C 331.472 190.400,330.570 192.650,330.393 193.200 C 330.216 193.750,329.054 196.630,327.812 199.600 C 326.570 202.570,324.648 207.340,323.542 210.200 C 322.435 213.060,321.366 215.571,321.165 215.780 C 320.964 215.989,320.800 216.540,320.800 217.004 C 320.800 217.467,320.536 218.196,320.213 218.624 C 319.890 219.051,319.620 219.650,319.613 219.956 C 319.606 220.262,319.257 221.252,318.837 222.156 C 318.418 223.060,317.688 224.790,317.216 226.000 C 316.744 227.210,316.197 228.560,316.000 229.000 C 314.462 232.450,314.000 233.628,314.000 234.102 C 314.000 234.402,313.736 234.996,313.413 235.424 C 313.090 235.851,312.820 236.473,312.813 236.806 C 312.806 237.139,312.440 238.084,312.000 238.904 C 311.560 239.725,311.200 240.722,311.200 241.119 C 311.200 241.515,311.045 242.011,310.855 242.220 C 310.665 242.429,310.319 243.140,310.087 243.800 C 309.750 244.759,307.191 251.092,305.239 255.800 C 305.056 256.240,304.500 257.680,304.002 259.000 C 303.504 260.320,302.773 262.120,302.378 263.000 C 301.470 265.019,298.465 272.484,297.709 274.597 C 297.394 275.475,296.996 276.375,296.824 276.597 C 296.651 276.819,296.394 277.487,296.252 278.083 C 295.405 281.629,293.596 282.748,289.494 282.262 C 286.655 281.926,286.813 283.377,286.803 257.600 L 286.793 234.200 288.257 230.800 C 289.062 228.930,290.338 226.050,291.093 224.400 C 291.848 222.750,292.743 220.770,293.082 220.000 C 293.421 219.230,293.946 218.090,294.249 217.468 C 294.552 216.845,294.800 216.070,294.800 215.747 C 294.800 215.423,295.153 214.493,295.585 213.679 C 296.482 211.989,298.276 208.024,299.604 204.800 C 300.102 203.590,301.115 201.288,301.855 199.685 C 302.595 198.081,303.200 196.542,303.200 196.265 C 303.200 195.987,303.362 195.589,303.559 195.380 C 303.757 195.171,304.406 193.740,305.001 192.200 C 305.596 190.660,306.965 187.552,308.042 185.294 C 309.119 183.035,310.000 181.011,310.000 180.795 C 310.000 180.579,310.524 179.277,311.165 177.901 C 312.524 174.984,315.600 167.731,315.600 167.444 C 315.600 167.336,316.387 165.572,317.349 163.524 C 318.311 161.476,319.497 158.810,319.986 157.600 C 320.475 156.390,321.218 154.660,321.637 153.756 C 322.057 152.852,322.400 152.005,322.400 151.874 C 322.400 151.743,322.930 150.503,323.577 149.118 C 324.225 147.733,325.234 145.430,325.820 144.000 C 326.777 141.667,328.224 138.398,329.806 135.000 C 330.113 134.340,330.841 132.553,331.423 131.028 C 332.006 129.504,332.620 127.974,332.788 127.628 C 335.003 123.064,335.600 121.731,335.600 121.354 C 335.600 121.109,335.973 120.434,336.429 119.854 L 337.258 118.800 346.529 118.795 C 351.628 118.792,356.205 118.681,356.700 118.548 C 357.626 118.300,357.943 116.931,357.248 116.180 C 357.055 115.971,356.671 115.080,356.396 114.200 C 356.121 113.320,355.764 112.420,355.603 112.200 C 355.442 111.980,355.190 111.297,355.043 110.682 C 354.896 110.066,354.040 107.996,353.141 106.082 C 352.243 104.167,351.096 101.674,350.594 100.542 C 346.254 90.760,332.887 74.950,322.800 67.668 C 318.308 64.425,309.820 58.800,309.419 58.800 C 309.308 58.800,307.819 58.151,306.109 57.358 C 301.424 55.185,300.891 54.956,297.000 53.452 C 295.020 52.686,291.870 51.672,290.000 51.199 C 288.130 50.726,285.700 50.093,284.600 49.793 C 282.387 49.190,277.404 48.505,271.600 48.007 C 267.034 47.614,130.458 47.620,125.600 48.013 M120.800 117.018 C 126.577 118.204,134.168 120.692,139.000 122.981 C 143.487 125.108,152.053 131.026,155.671 134.500 C 157.062 135.835,156.182 137.138,150.763 141.763 C 150.013 142.403,148.314 143.933,146.987 145.163 C 145.659 146.394,143.499 148.332,142.187 149.472 C 140.874 150.611,139.170 152.093,138.400 152.765 C 136.473 154.448,136.018 154.345,133.128 151.582 C 127.918 146.598,120.967 142.900,115.063 141.969 C 113.777 141.767,112.517 141.471,112.263 141.312 C 112.008 141.153,110.360 140.928,108.600 140.811 L 105.400 140.600 105.294 128.604 C 105.236 122.007,105.281 116.365,105.395 116.068 C 105.704 115.263,115.063 115.840,120.800 117.018 M225.676 119.500 C 226.236 120.152,226.887 121.467,228.747 125.700 C 229.158 126.635,229.788 128.057,230.147 128.860 C 230.506 129.664,230.800 130.504,230.800 130.728 C 230.800 130.952,231.068 131.645,231.395 132.268 C 232.111 133.628,233.909 137.636,235.399 141.189 C 236.392 143.557,237.990 147.158,239.397 150.200 C 239.703 150.860,240.341 152.390,240.816 153.600 C 241.290 154.810,242.085 156.700,242.582 157.800 C 243.079 158.900,244.074 161.150,244.793 162.800 C 245.512 164.450,246.336 166.340,246.625 167.000 C 246.914 167.660,247.539 169.100,248.014 170.200 C 248.489 171.300,249.130 172.785,249.439 173.500 C 249.747 174.215,250.259 175.385,250.576 176.100 C 252.317 180.032,252.800 181.177,252.800 181.375 C 252.800 181.496,253.700 183.470,254.800 185.761 C 255.900 188.053,256.800 190.127,256.800 190.370 C 256.800 190.612,256.967 191.123,257.171 191.505 C 257.376 191.887,257.893 193.010,258.321 194.000 C 258.749 194.990,259.916 197.690,260.914 200.000 C 265.064 209.606,265.693 211.045,266.586 212.976 C 267.100 214.089,267.914 215.990,268.394 217.200 C 268.875 218.410,269.596 220.120,269.998 221.000 C 270.399 221.880,271.176 223.590,271.724 224.800 C 272.272 226.010,273.413 228.530,274.260 230.400 L 275.800 233.800 275.912 257.207 C 276.037 283.210,276.173 281.892,273.311 282.276 C 269.795 282.747,268.277 282.193,267.317 280.089 C 265.860 276.892,264.800 274.314,264.800 273.967 C 264.800 273.785,264.269 272.503,263.620 271.118 C 262.970 269.733,261.778 266.890,260.970 264.800 C 260.163 262.710,259.164 260.245,258.751 259.322 C 258.338 258.399,258.000 257.437,258.000 257.184 C 258.000 256.931,257.747 256.246,257.438 255.662 C 256.907 254.657,254.646 249.293,253.283 245.800 C 252.940 244.920,252.330 243.445,251.929 242.522 C 251.528 241.599,251.200 240.669,251.200 240.454 C 251.200 240.240,250.947 239.555,250.638 238.932 C 249.349 236.334,248.400 234.081,248.400 233.618 C 248.400 233.346,248.155 232.646,247.855 232.062 C 247.556 231.478,247.124 230.460,246.895 229.800 C 246.424 228.439,243.701 221.869,242.495 219.183 C 242.054 218.202,241.276 216.230,240.764 214.800 C 240.252 213.370,239.602 211.750,239.319 211.200 C 239.036 210.650,238.798 209.930,238.790 209.600 C 238.781 209.270,238.510 208.651,238.187 208.224 C 237.864 207.796,237.600 207.196,237.600 206.888 C 237.600 206.581,237.043 205.130,236.363 203.665 C 235.682 202.199,234.690 199.830,234.159 198.400 C 233.627 196.970,233.024 195.440,232.818 195.000 C 232.611 194.560,232.060 193.210,231.591 192.000 C 231.123 190.790,230.508 189.260,230.226 188.600 C 229.943 187.940,229.303 186.320,228.803 185.000 C 227.648 181.947,226.934 180.800,226.191 180.800 C 225.672 180.800,225.600 188.409,225.600 243.000 C 225.600 304.667,225.593 305.207,224.800 306.000 C 224.030 306.770,223.467 306.800,209.846 306.800 L 195.692 306.800 195.043 305.810 C 194.135 304.423,194.239 120.558,195.149 119.461 C 196.013 118.420,224.782 118.457,225.676 119.500 M166.130 210.100 C 166.767 210.566,166.806 213.056,166.707 246.800 L 166.600 283.000 165.400 284.341 C 162.637 287.428,160.822 289.136,157.798 291.497 C 156.039 292.870,154.383 294.175,154.117 294.397 C 153.851 294.619,153.473 294.800,153.277 294.800 C 153.081 294.800,152.156 295.354,151.222 296.030 C 142.623 302.259,125.988 306.987,109.571 307.869 C 104.869 308.121,105.167 308.936,105.293 296.151 L 105.400 285.400 110.200 285.155 C 112.840 285.021,116.080 284.713,117.400 284.470 C 118.720 284.228,120.880 283.847,122.200 283.623 C 125.593 283.047,128.018 282.414,129.332 281.762 C 129.955 281.453,130.711 281.200,131.012 281.200 C 131.869 281.200,135.085 278.884,135.986 277.619 C 136.847 276.410,137.296 232.601,136.461 231.285 C 136.206 230.884,132.856 230.752,121.167 230.685 C 112.935 230.638,105.975 230.454,105.700 230.276 C 105.161 229.927,104.938 210.396,105.467 209.867 C 106.003 209.331,165.391 209.559,166.130 210.100 " stroke="none" fill="#0c1314" fill-rule="evenodd" style="&#10;    fill: #fff;&#10;"/></g></svg>    